<svg width="29" height="21" viewBox="0 0 29 21" fill="none" xmlns="http://www.w3.org/2000/svg">
<path d="M11.2791 20.675C10.7291 20.675 10.1041 20.5667 9.4041 20.35C8.72077 20.15 8.0041 19.9083 7.2541 19.625C6.52077 19.3417 5.81244 19.075 5.1291 18.825C4.5791 19.1417 4.0541 19.3917 3.5541 19.575C3.07077 19.7583 2.6041 19.85 2.1541 19.85C1.58743 19.85 1.11243 19.7083 0.729102 19.425C0.362435 19.1583 0.179102 18.7917 0.179102 18.325C0.179102 17.925 0.337435 17.6083 0.654102 17.375C0.987435 17.125 1.5291 17 2.2791 17C2.66243 17 3.0791 17.0333 3.5291 17.1C3.99577 17.15 4.48744 17.225 5.0041 17.325C5.77077 16.675 6.53744 15.8667 7.3041 14.9C8.08744 13.9167 8.8041 12.8583 9.4541 11.725C10.1041 10.5917 10.6291 9.44167 11.0291 8.275C11.4291 7.10833 11.6291 6.00833 11.6291 4.975C11.6291 3.79167 11.3708 2.925 10.8541 2.375C10.3541 1.80833 9.71244 1.525 8.9291 1.525C8.1791 1.525 7.5541 1.75 7.0541 2.2C6.5541 2.65 6.1791 3.21667 5.9291 3.9C5.69577 4.58333 5.5791 5.275 5.5791 5.975C5.5791 6.375 5.61244 6.74167 5.6791 7.075C5.76244 7.40833 5.88744 7.76667 6.0541 8.15C5.98744 8.15 5.91244 8.15 5.8291 8.15C5.74577 8.13333 5.66244 8.11667 5.5791 8.1C5.09577 8.05 4.6541 7.85 4.2541 7.5C3.8541 7.15 3.6541 6.55 3.6541 5.7C3.6541 4.8 3.88744 3.95833 4.3541 3.175C4.83744 2.375 5.49577 1.73333 6.3291 1.25C7.16244 0.749999 8.12077 0.499999 9.2041 0.499999C10.2041 0.499999 11.0374 0.716666 11.7041 1.15C12.3874 1.58333 12.8958 2.175 13.2291 2.925C13.5791 3.65833 13.7541 4.49167 13.7541 5.425C13.7541 6.09167 13.6624 6.79167 13.4791 7.525C13.3124 8.24167 13.0708 8.96667 12.7541 9.7C12.3374 10.7 11.8041 11.6917 11.1541 12.675C10.5208 13.6417 9.82077 14.55 9.0541 15.4C8.28744 16.25 7.49577 17.0083 6.6791 17.675C7.76244 17.9083 8.7541 18.1083 9.6541 18.275C10.5541 18.425 11.2791 18.5 11.8291 18.5C12.2458 18.5 12.6041 18.4417 12.9041 18.325C13.2208 18.2083 13.6374 18.0083 14.1541 17.725C13.8874 18.7417 13.5208 19.4833 13.0541 19.95C12.6041 20.4333 12.0124 20.675 11.2791 20.675ZM2.1041 18.825C2.33743 18.825 2.5791 18.775 2.8291 18.675C3.0791 18.5917 3.34577 18.4667 3.6291 18.3C3.31243 18.2 3.01243 18.125 2.7291 18.075C2.46243 18.025 2.23744 18 2.0541 18C1.7541 18 1.5541 18.05 1.4541 18.15C1.3541 18.2333 1.3041 18.3167 1.3041 18.4C1.32077 18.5167 1.4041 18.6167 1.5541 18.7C1.72077 18.7833 1.9041 18.825 2.1041 18.825ZM20.1699 20.675C19.0033 20.675 18.0783 20.475 17.3949 20.075C16.7283 19.6917 16.2449 19.2167 15.9449 18.65C15.6616 18.0833 15.5199 17.525 15.5199 16.975C15.5199 16.5417 15.5949 16.1083 15.7449 15.675C15.9116 15.2417 16.1533 14.8833 16.4699 14.6C16.8033 14.3167 17.2199 14.175 17.7199 14.175C17.8033 14.175 17.9033 14.1833 18.0199 14.2C18.1533 14.2 18.3533 14.225 18.6199 14.275C18.3033 14.525 18.0449 14.8833 17.8449 15.35C17.6616 15.8 17.5699 16.275 17.5699 16.775C17.5699 17.225 17.6533 17.6583 17.8199 18.075C18.0033 18.4917 18.2866 18.8333 18.6699 19.1C19.0533 19.3833 19.5449 19.525 20.1449 19.525C20.7949 19.525 21.3699 19.3667 21.8699 19.05C22.3866 18.7333 22.8199 18.3167 23.1699 17.8C23.5366 17.2833 23.8116 16.7167 23.9949 16.1C24.1783 15.4667 24.2699 14.8417 24.2699 14.225C24.2699 13.5583 24.1533 12.9417 23.9199 12.375C23.6866 11.7917 23.3199 11.325 22.8199 10.975C22.3366 10.6083 21.6866 10.425 20.8699 10.425C20.5533 10.425 20.1699 10.4583 19.7199 10.525C19.2699 10.575 18.7783 10.65 18.2449 10.75C18.3283 10.2 18.4533 9.55833 18.6199 8.825C18.7866 8.075 18.9783 7.3 19.1949 6.5C19.4116 5.7 19.6283 4.925 19.8449 4.175C20.0783 3.40833 20.2783 2.71667 20.4449 2.1C20.6283 1.48333 20.7699 0.991666 20.8699 0.624999C21.4366 0.758333 21.9533 0.849999 22.4199 0.899999C22.9033 0.949999 23.3449 0.974999 23.7449 0.974999C24.4616 0.974999 25.1533 0.924999 25.8199 0.825C26.4866 0.724999 27.1783 0.608332 27.8949 0.475C27.9449 0.674999 27.9866 0.849999 28.0199 0.999999C28.0533 1.13333 28.0699 1.275 28.0699 1.425C28.0699 1.90833 27.8949 2.29167 27.5449 2.575C27.2116 2.85833 26.7866 3.05833 26.2699 3.175C25.7533 3.29167 25.2366 3.35 24.7199 3.35C24.1033 3.35 23.5533 3.3 23.0699 3.2C22.6033 3.1 22.2033 3.05 21.8699 3.05C21.8033 3.05 21.7366 3.075 21.6699 3.125C21.6199 3.175 21.5699 3.24167 21.5199 3.325C21.3699 3.54167 21.2199 3.86667 21.0699 4.3C20.9199 4.73333 20.7699 5.20833 20.6199 5.725C20.4866 6.24167 20.3533 6.75833 20.2199 7.275C20.1033 7.79167 19.9949 8.25833 19.8949 8.675C19.7949 9.075 19.7116 9.375 19.6449 9.575C19.9783 9.50833 20.3116 9.45833 20.6449 9.425C20.9949 9.39167 21.3449 9.375 21.6949 9.375C22.8949 9.375 23.8949 9.59167 24.6949 10.025C25.4949 10.4417 26.0949 11.0167 26.4949 11.75C26.8949 12.4833 27.0949 13.325 27.0949 14.275C27.0949 15.4417 26.8033 16.5167 26.2199 17.5C25.6533 18.4667 24.8449 19.2333 23.7949 19.8C22.7616 20.3833 21.5533 20.675 20.1699 20.675Z" fill="#ECF39E"/>
</svg>
