<svg width="18" height="18" viewBox="0 0 18 18" fill="none" xmlns="http://www.w3.org/2000/svg">
<path d="M6.80774 0.5C8.53165 0.5 10.1849 1.18482 11.4039 2.40381C12.6229 3.62279 13.3077 5.27609 13.3077 7C13.3077 8.61 12.7177 10.09 11.7477 11.23L12.0177 11.5H12.8077L17.8077 16.5L16.3077 18L11.3077 13V12.21L11.0377 11.94C9.89774 12.91 8.41774 13.5 6.80774 13.5C5.08383 13.5 3.43053 12.8152 2.21154 11.5962C0.992558 10.3772 0.307739 8.72391 0.307739 7C0.307739 5.27609 0.992558 3.62279 2.21154 2.40381C3.43053 1.18482 5.08383 0.5 6.80774 0.5ZM6.80774 2.5C4.30774 2.5 2.30774 4.5 2.30774 7C2.30774 9.5 4.30774 11.5 6.80774 11.5C9.30774 11.5 11.3077 9.5 11.3077 7C11.3077 4.5 9.30774 2.5 6.80774 2.5Z" fill="#ECF39E"/>
</svg>
