<svg width="61" height="54" viewBox="0 0 61 54" fill="none" xmlns="http://www.w3.org/2000/svg">
<g clip-path="url(#clip0_375_1881)">
<path d="M13.8093 0.982941V23.0494M7.19688 5.54838V18.4839M0.59668 9.73389V14.2984M20.4663 5.54838V18.4839M27.3517 9.73389V14.2984M46.8609 0.982941V23.0494M40.2485 5.54838V18.4839M33.6483 9.73389V14.2984M53.5179 5.54838V18.4839M60.4033 9.73389V14.2984" stroke="#ECF39E" stroke-width="2" stroke-linecap="round" stroke-linejoin="round"/>
</g>
<path d="M11.041 47.3374C10.065 47.3374 9.18097 47.1774 8.38897 46.8574C7.59697 46.5294 6.92497 46.0854 6.37297 45.5254C5.82897 44.9574 5.43297 44.3134 5.18497 43.5934L7.15297 42.8734C7.48897 43.6174 7.99697 44.2214 8.67697 44.6854C9.36497 45.1414 10.169 45.3694 11.089 45.3694C12.097 45.3694 12.901 45.1294 13.501 44.6494C14.101 44.1614 14.401 43.4574 14.401 42.5374C14.401 41.8894 14.221 41.3454 13.861 40.9054C13.501 40.4654 13.033 40.0974 12.457 39.8014C11.881 39.4974 11.265 39.2254 10.609 38.9854C10.025 38.7694 9.44097 38.5294 8.85697 38.2654C8.27297 38.0014 7.74097 37.6894 7.26097 37.3294C6.78897 36.9614 6.40897 36.5174 6.12097 35.9974C5.83297 35.4694 5.68897 34.8414 5.68897 34.1134C5.68897 33.3614 5.89297 32.6734 6.30097 32.0494C6.70897 31.4174 7.29697 30.9134 8.06497 30.5374C8.83297 30.1534 9.76097 29.9614 10.849 29.9614C11.737 29.9614 12.517 30.0934 13.189 30.3574C13.869 30.6134 14.425 30.9694 14.857 31.4254C15.297 31.8734 15.601 32.3854 15.769 32.9614L13.849 33.6094C13.649 33.1374 13.281 32.7374 12.745 32.4094C12.217 32.0734 11.537 31.9054 10.705 31.9054C9.81697 31.9054 9.11697 32.1014 8.60497 32.4934C8.10097 32.8854 7.84897 33.4254 7.84897 34.1134C7.84897 34.6334 8.01697 35.0694 8.35297 35.4214C8.69697 35.7654 9.14497 36.0654 9.69697 36.3214C10.249 36.5774 10.841 36.8254 11.473 37.0654C12.065 37.2894 12.657 37.5454 13.249 37.8334C13.849 38.1134 14.397 38.4574 14.893 38.8654C15.397 39.2734 15.801 39.7734 16.105 40.3654C16.409 40.9494 16.561 41.6574 16.561 42.4894C16.561 43.5214 16.321 44.3974 15.841 45.1174C15.361 45.8374 14.705 46.3894 13.873 46.7734C13.041 47.1494 12.097 47.3374 11.041 47.3374ZM23.4983 52.1614L22.4903 50.5294C23.5783 50.4654 24.4663 50.3174 25.1543 50.0854C25.8503 49.8534 26.3623 49.5254 26.6903 49.1014C27.0263 48.6774 27.1943 48.1454 27.1943 47.5054V45.8494C26.4583 46.8414 25.4023 47.3374 24.0263 47.3374C23.0183 47.3374 22.1383 47.0694 21.3863 46.5334C20.6343 45.9974 20.0503 45.2494 19.6343 44.2894C19.2183 43.3214 19.0103 42.1934 19.0103 40.9054C19.0103 39.6014 19.2183 38.4694 19.6343 37.5094C20.0583 36.5494 20.6503 35.8094 21.4103 35.2894C22.1703 34.7614 23.0663 34.4974 24.0983 34.4974C24.7143 34.4974 25.2903 34.6134 25.8263 34.8454C26.3703 35.0694 26.8263 35.3854 27.1943 35.7934V34.7854H29.2823V46.7134C29.2823 47.5854 29.1663 48.3494 28.9343 49.0054C28.7023 49.6694 28.3463 50.2254 27.8663 50.6734C27.3863 51.1214 26.7823 51.4654 26.0543 51.7054C25.3343 51.9534 24.4823 52.1054 23.4983 52.1614ZM24.4583 45.3934C24.9863 45.3934 25.4983 45.2334 25.9943 44.9134C26.4983 44.5934 26.8983 44.1774 27.1943 43.6654V38.0494C26.9223 37.5774 26.5223 37.1894 25.9943 36.8854C25.4743 36.5734 24.9623 36.4174 24.4583 36.4174C23.3783 36.4174 22.5503 36.8014 21.9743 37.5694C21.4063 38.3374 21.1223 39.4494 21.1223 40.9054C21.1223 41.8174 21.2583 42.6094 21.5303 43.2814C21.8103 43.9534 22.1983 44.4734 22.6943 44.8414C23.1983 45.2094 23.7863 45.3934 24.4583 45.3934Z" fill="white"/>
<path d="M38.5097 47.3374C37.5337 47.3374 36.6497 47.1774 35.8577 46.8574C35.0657 46.5294 34.3937 46.0854 33.8417 45.5254C33.2977 44.9574 32.9017 44.3134 32.6537 43.5934L34.6217 42.8734C34.9577 43.6174 35.4657 44.2214 36.1457 44.6854C36.8337 45.1414 37.6377 45.3694 38.5577 45.3694C39.5657 45.3694 40.3697 45.1294 40.9697 44.6494C41.5697 44.1614 41.8697 43.4574 41.8697 42.5374C41.8697 41.8894 41.6897 41.3454 41.3297 40.9054C40.9697 40.4654 40.5017 40.0974 39.9257 39.8014C39.3497 39.4974 38.7337 39.2254 38.0777 38.9854C37.4937 38.7694 36.9097 38.5294 36.3257 38.2654C35.7417 38.0014 35.2097 37.6894 34.7297 37.3294C34.2577 36.9614 33.8777 36.5174 33.5897 35.9974C33.3017 35.4694 33.1577 34.8414 33.1577 34.1134C33.1577 33.3614 33.3617 32.6734 33.7697 32.0494C34.1777 31.4174 34.7657 30.9134 35.5337 30.5374C36.3017 30.1534 37.2297 29.9614 38.3177 29.9614C39.2057 29.9614 39.9857 30.0934 40.6577 30.3574C41.3377 30.6134 41.8937 30.9694 42.3257 31.4254C42.7657 31.8734 43.0697 32.3854 43.2377 32.9614L41.3177 33.6094C41.1177 33.1374 40.7497 32.7374 40.2137 32.4094C39.6857 32.0734 39.0057 31.9054 38.1737 31.9054C37.2857 31.9054 36.5857 32.1014 36.0737 32.4934C35.5697 32.8854 35.3177 33.4254 35.3177 34.1134C35.3177 34.6334 35.4857 35.0694 35.8217 35.4214C36.1657 35.7654 36.6137 36.0654 37.1657 36.3214C37.7177 36.5774 38.3097 36.8254 38.9417 37.0654C39.5337 37.2894 40.1257 37.5454 40.7177 37.8334C41.3177 38.1134 41.8657 38.4574 42.3617 38.8654C42.8657 39.2734 43.2697 39.7734 43.5737 40.3654C43.8777 40.9494 44.0297 41.6574 44.0297 42.4894C44.0297 43.5214 43.7897 44.3974 43.3097 45.1174C42.8297 45.8374 42.1737 46.3894 41.3417 46.7734C40.5097 47.1494 39.5657 47.3374 38.5097 47.3374ZM51.567 47.3374C50.511 47.3374 49.603 47.0814 48.843 46.5694C48.083 46.0494 47.499 45.3134 47.091 44.3614C46.683 43.4014 46.479 42.2574 46.479 40.9294C46.479 39.5934 46.687 38.4454 47.103 37.4854C47.519 36.5254 48.111 35.7894 48.879 35.2774C49.655 34.7574 50.583 34.4974 51.663 34.4974C52.719 34.4974 53.615 34.7414 54.351 35.2294C55.087 35.7174 55.623 36.4254 55.959 37.3534L53.991 38.0734C53.791 37.5454 53.491 37.1414 53.091 36.8614C52.699 36.5814 52.231 36.4414 51.687 36.4414C50.695 36.4414 49.935 36.8254 49.407 37.5934C48.879 38.3614 48.615 39.4734 48.615 40.9294C48.615 42.3534 48.875 43.4494 49.395 44.2174C49.915 44.9854 50.655 45.3694 51.615 45.3694C52.231 45.3694 52.755 45.2094 53.187 44.8894C53.627 44.5694 53.935 44.1214 54.111 43.5454L56.055 44.1934C55.759 45.2014 55.219 45.9774 54.435 46.5214C53.651 47.0654 52.695 47.3374 51.567 47.3374Z" fill="#ECF39E"/>
<defs>
<clipPath id="clip0_375_1881">
<rect width="59.8066" height="22.0664" fill="white" transform="translate(0.59668 0.982941)"/>
</clipPath>
</defs>
</svg>
