<svg width="122" height="25" viewBox="0 0 122 25" fill="none" xmlns="http://www.w3.org/2000/svg">
<path d="M8.01948 18.788C7.04348 18.788 6.15948 18.628 5.36748 18.308C4.57548 17.98 3.90348 17.536 3.35148 16.976C2.80748 16.408 2.41148 15.764 2.16348 15.044L4.13148 14.324C4.46748 15.068 4.97548 15.672 5.65548 16.136C6.34348 16.592 7.14748 16.82 8.06748 16.82C9.07548 16.82 9.87948 16.58 10.4795 16.1C11.0795 15.612 11.3795 14.908 11.3795 13.988C11.3795 13.34 11.1995 12.796 10.8395 12.356C10.4795 11.916 10.0115 11.548 9.43549 11.252C8.85948 10.948 8.24348 10.676 7.58748 10.436C7.00348 10.22 6.41948 9.98 5.83548 9.716C5.25148 9.452 4.71948 9.14 4.23948 8.78C3.76748 8.412 3.38748 7.968 3.09948 7.448C2.81148 6.92 2.66748 6.292 2.66748 5.564C2.66748 4.812 2.87148 4.124 3.27948 3.5C3.68748 2.868 4.27548 2.364 5.04348 1.988C5.81148 1.604 6.73948 1.412 7.82748 1.412C8.71548 1.412 9.49549 1.544 10.1675 1.808C10.8475 2.064 11.4035 2.42 11.8355 2.876C12.2755 3.324 12.5795 3.836 12.7475 4.412L10.8275 5.06C10.6275 4.588 10.2595 4.188 9.72348 3.86C9.19548 3.524 8.51548 3.356 7.68348 3.356C6.79548 3.356 6.09548 3.552 5.58348 3.944C5.07948 4.336 4.82748 4.876 4.82748 5.564C4.82748 6.084 4.99548 6.52 5.33148 6.872C5.67548 7.216 6.12348 7.516 6.67548 7.772C7.22748 8.028 7.81948 8.276 8.45148 8.516C9.04348 8.74 9.63548 8.996 10.2275 9.284C10.8275 9.564 11.3755 9.908 11.8715 10.316C12.3755 10.724 12.7795 11.224 13.0835 11.816C13.3875 12.4 13.5395 13.108 13.5395 13.94C13.5395 14.972 13.2995 15.848 12.8195 16.568C12.3395 17.288 11.6835 17.84 10.8515 18.224C10.0195 18.6 9.07548 18.788 8.01948 18.788ZM21.4128 18.788C19.7328 18.788 18.4088 18.216 17.4408 17.072C16.4728 15.92 15.9888 14.356 15.9888 12.38C15.9888 11.06 16.2088 9.92 16.6488 8.96C17.0888 8 17.7128 7.26 18.5208 6.74C19.3368 6.212 20.3008 5.948 21.4128 5.948C22.5328 5.948 23.4968 6.208 24.3048 6.728C25.1208 7.24 25.7448 7.976 26.1768 8.936C26.6168 9.896 26.8368 11.036 26.8368 12.356C26.8368 13.676 26.6168 14.82 26.1768 15.788C25.7368 16.748 25.1088 17.488 24.2928 18.008C23.4848 18.528 22.5248 18.788 21.4128 18.788ZM21.4128 16.844C22.4448 16.844 23.2528 16.448 23.8368 15.656C24.4288 14.856 24.7248 13.756 24.7248 12.356C24.7248 10.948 24.4288 9.848 23.8368 9.056C23.2528 8.264 22.4448 7.868 21.4128 7.868C20.3728 7.868 19.5608 8.264 18.9768 9.056C18.3928 9.84 18.1008 10.948 18.1008 12.38C18.1008 13.78 18.3928 14.876 18.9768 15.668C19.5608 16.452 20.3728 16.844 21.4128 16.844ZM29.9744 18.5V6.236H32.0624V7.484C32.4384 6.964 32.8904 6.58 33.4184 6.332C33.9464 6.076 34.5504 5.948 35.2304 5.948C36.7184 5.948 37.8224 6.4 38.5424 7.304C39.2624 8.2 39.6224 9.58 39.6224 11.444V18.5H37.5344V11.084C37.5344 10.052 37.3024 9.26 36.8384 8.708C36.3824 8.148 35.7344 7.868 34.8944 7.868C33.9584 7.868 33.2504 8.136 32.7704 8.672C32.2984 9.2 32.0624 9.988 32.0624 11.036V18.5H29.9744ZM47.6174 23.612L46.6094 21.98C47.6974 21.916 48.5854 21.768 49.2734 21.536C49.9694 21.304 50.4814 20.976 50.8094 20.552C51.1454 20.128 51.3134 19.596 51.3134 18.956V17.3C50.5774 18.292 49.5214 18.788 48.1454 18.788C47.1374 18.788 46.2574 18.52 45.5054 17.984C44.7534 17.448 44.1694 16.7 43.7534 15.74C43.3374 14.772 43.1294 13.644 43.1294 12.356C43.1294 11.052 43.3374 9.92 43.7534 8.96C44.1774 8 44.7694 7.26 45.5294 6.74C46.2894 6.212 47.1854 5.948 48.2174 5.948C48.8334 5.948 49.4094 6.064 49.9454 6.296C50.4894 6.52 50.9454 6.836 51.3134 7.244V6.236H53.4014V18.164C53.4014 19.036 53.2854 19.8 53.0534 20.456C52.8214 21.12 52.4654 21.676 51.9854 22.124C51.5054 22.572 50.9014 22.916 50.1734 23.156C49.4534 23.404 48.6014 23.556 47.6174 23.612ZM48.5774 16.844C49.1054 16.844 49.6174 16.684 50.1134 16.364C50.6174 16.044 51.0174 15.628 51.3134 15.116V9.5C51.0414 9.028 50.6414 8.64 50.1134 8.336C49.5934 8.024 49.0814 7.868 48.5774 7.868C47.4974 7.868 46.6694 8.252 46.0934 9.02C45.5254 9.788 45.2414 10.9 45.2414 12.356C45.2414 13.268 45.3774 14.06 45.6494 14.732C45.9294 15.404 46.3174 15.924 46.8134 16.292C47.3174 16.66 47.9054 16.844 48.5774 16.844Z" fill="white"/>
<path d="M62.6289 18.788C61.6529 18.788 60.7689 18.628 59.9769 18.308C59.1849 17.98 58.5129 17.536 57.9609 16.976C57.4169 16.408 57.0209 15.764 56.7729 15.044L58.7409 14.324C59.0769 15.068 59.5849 15.672 60.2649 16.136C60.9529 16.592 61.7569 16.82 62.6769 16.82C63.6849 16.82 64.4889 16.58 65.0889 16.1C65.6889 15.612 65.9889 14.908 65.9889 13.988C65.9889 13.34 65.8089 12.796 65.4489 12.356C65.0889 11.916 64.6209 11.548 64.0449 11.252C63.4689 10.948 62.8529 10.676 62.1969 10.436C61.6129 10.22 61.0289 9.98 60.4449 9.716C59.8609 9.452 59.3289 9.14 58.8489 8.78C58.3769 8.412 57.9969 7.968 57.7089 7.448C57.4209 6.92 57.2769 6.292 57.2769 5.564C57.2769 4.812 57.4809 4.124 57.8889 3.5C58.2969 2.868 58.8849 2.364 59.6529 1.988C60.4209 1.604 61.3489 1.412 62.4369 1.412C63.3249 1.412 64.1049 1.544 64.7769 1.808C65.4569 2.064 66.0129 2.42 66.4449 2.876C66.8849 3.324 67.1889 3.836 67.3569 4.412L65.4369 5.06C65.2369 4.588 64.8689 4.188 64.3329 3.86C63.8049 3.524 63.1249 3.356 62.2929 3.356C61.4049 3.356 60.7049 3.552 60.1929 3.944C59.6889 4.336 59.4369 4.876 59.4369 5.564C59.4369 6.084 59.6049 6.52 59.9409 6.872C60.2849 7.216 60.7329 7.516 61.2849 7.772C61.8369 8.028 62.4289 8.276 63.0609 8.516C63.6529 8.74 64.2449 8.996 64.8369 9.284C65.4369 9.564 65.9849 9.908 66.4809 10.316C66.9849 10.724 67.3889 11.224 67.6929 11.816C67.9969 12.4 68.1489 13.108 68.1489 13.94C68.1489 14.972 67.9089 15.848 67.4289 16.568C66.9489 17.288 66.2929 17.84 65.4609 18.224C64.6289 18.6 63.6849 18.788 62.6289 18.788ZM75.6862 18.788C74.6302 18.788 73.7222 18.532 72.9622 18.02C72.2022 17.5 71.6182 16.764 71.2102 15.812C70.8022 14.852 70.5982 13.708 70.5982 12.38C70.5982 11.044 70.8062 9.896 71.2222 8.936C71.6382 7.976 72.2302 7.24 72.9982 6.728C73.7742 6.208 74.7022 5.948 75.7822 5.948C76.8382 5.948 77.7342 6.192 78.4702 6.68C79.2062 7.168 79.7422 7.876 80.0782 8.804L78.1102 9.524C77.9102 8.996 77.6102 8.592 77.2102 8.312C76.8182 8.032 76.3502 7.892 75.8062 7.892C74.8142 7.892 74.0542 8.276 73.5262 9.044C72.9982 9.812 72.7342 10.924 72.7342 12.38C72.7342 13.804 72.9942 14.9 73.5142 15.668C74.0342 16.436 74.7742 16.82 75.7342 16.82C76.3502 16.82 76.8742 16.66 77.3062 16.34C77.7462 16.02 78.0542 15.572 78.2302 14.996L80.1742 15.644C79.8782 16.652 79.3382 17.428 78.5542 17.972C77.7702 18.516 76.8142 18.788 75.6862 18.788ZM86.6358 18.788C85.3078 18.788 84.2638 18.42 83.5038 17.684C82.7438 16.948 82.3638 15.94 82.3638 14.66C82.3638 13.836 82.5518 13.12 82.9278 12.512C83.3038 11.904 83.8358 11.436 84.5238 11.108C85.2118 10.772 86.0198 10.604 86.9478 10.604C87.5478 10.604 88.1078 10.672 88.6278 10.808C89.1558 10.936 89.6518 11.132 90.1158 11.396V10.532C90.1158 9.58 89.8998 8.884 89.4678 8.444C89.0358 7.996 88.3638 7.772 87.4518 7.772C86.8678 7.772 86.2598 7.88 85.6278 8.096C85.0038 8.312 84.4198 8.612 83.8758 8.996L83.2758 7.244C83.8918 6.836 84.5918 6.52 85.3758 6.296C86.1678 6.064 86.9478 5.948 87.7158 5.948C89.1718 5.948 90.2638 6.32 90.9918 7.064C91.7198 7.8 92.0838 8.9 92.0838 10.364V18.5H90.1158V17.372C89.6358 17.828 89.0958 18.18 88.4958 18.428C87.8958 18.668 87.2758 18.788 86.6358 18.788ZM86.9478 16.964C87.5158 16.964 88.0758 16.824 88.6278 16.544C89.1878 16.264 89.6838 15.868 90.1158 15.356V13.244C89.7078 12.988 89.2438 12.788 88.7238 12.644C88.2038 12.5 87.7078 12.428 87.2358 12.428C86.3398 12.428 85.6318 12.632 85.1118 13.04C84.5918 13.44 84.3318 13.988 84.3318 14.684C84.3318 15.388 84.5638 15.944 85.0278 16.352C85.4918 16.76 86.1318 16.964 86.9478 16.964ZM96.0213 23.372V6.236H98.1093V7.268C98.9893 6.388 100.037 5.948 101.253 5.948C102.293 5.948 103.189 6.208 103.941 6.728C104.701 7.248 105.285 7.988 105.693 8.948C106.109 9.908 106.317 11.044 106.317 12.356C106.317 13.668 106.109 14.808 105.693 15.776C105.277 16.736 104.689 17.48 103.929 18.008C103.177 18.528 102.285 18.788 101.253 18.788C100.605 18.788 100.021 18.672 99.5013 18.44C98.9813 18.2 98.5173 17.836 98.1093 17.348V22.388L96.0213 23.372ZM100.989 16.844C102.021 16.844 102.809 16.456 103.353 15.68C103.905 14.904 104.181 13.796 104.181 12.356C104.181 10.972 103.893 9.88 103.317 9.08C102.741 8.272 101.965 7.868 100.989 7.868C100.365 7.868 99.8053 8.012 99.3093 8.3C98.8133 8.588 98.4133 8.996 98.1093 9.524V15.188C98.5333 15.74 98.9853 16.156 99.4653 16.436C99.9453 16.708 100.453 16.844 100.989 16.844ZM114.695 18.788C113.575 18.788 112.607 18.512 111.791 17.96C110.975 17.408 110.347 16.648 109.907 15.68C109.467 14.712 109.247 13.604 109.247 12.356C109.247 11.004 109.475 9.852 109.931 8.9C110.387 7.94 111.023 7.208 111.839 6.704C112.655 6.2 113.607 5.948 114.695 5.948C115.615 5.948 116.459 6.156 117.227 6.572C117.995 6.98 118.607 7.616 119.063 8.48C119.527 9.336 119.759 10.436 119.759 11.78C119.759 11.972 119.751 12.196 119.735 12.452C119.727 12.7 119.711 12.956 119.687 13.22H111.383C111.463 13.964 111.647 14.616 111.935 15.176C112.223 15.736 112.603 16.176 113.075 16.496C113.547 16.808 114.103 16.964 114.743 16.964C115.263 16.964 115.743 16.872 116.183 16.688C116.631 16.504 117.047 16.22 117.431 15.836L118.655 17.204C118.199 17.66 117.631 18.04 116.951 18.344C116.279 18.64 115.527 18.788 114.695 18.788ZM111.359 11.396H117.647C117.647 10.7 117.531 10.08 117.299 9.536C117.075 8.984 116.743 8.552 116.303 8.24C115.863 7.928 115.327 7.772 114.695 7.772C113.807 7.772 113.043 8.06 112.403 8.636C111.771 9.212 111.423 10.132 111.359 11.396Z" fill="#ECF39E"/>
</svg>
