<svg width="121" height="54" viewBox="0 0 121 54" fill="none" xmlns="http://www.w3.org/2000/svg">
<path d="M43.8093 1.9165V23.9829M37.1969 6.48194V19.4175M30.5967 10.6675V15.232M50.4663 6.48194V19.4175M57.3517 10.6675V15.232M76.8609 1.9165V23.9829M70.2485 6.48194V19.4175M63.6483 10.6675V15.232M83.5179 6.48194V19.4175M90.4033 10.6675V15.232" stroke="#ECF39E" stroke-width="2" stroke-linecap="round" stroke-linejoin="round"/>
<path d="M7.68941 48.2709C6.71341 48.2709 5.82941 48.1109 5.03741 47.7909C4.24541 47.4629 3.57341 47.0189 3.02141 46.4589C2.47741 45.8909 2.08141 45.2469 1.83341 44.5269L3.80141 43.8069C4.13741 44.5509 4.64541 45.1549 5.32541 45.6189C6.01341 46.0749 6.81741 46.3029 7.73741 46.3029C8.74541 46.3029 9.54941 46.0629 10.1494 45.5829C10.7494 45.0949 11.0494 44.3909 11.0494 43.4709C11.0494 42.8229 10.8694 42.2789 10.5094 41.8389C10.1494 41.3989 9.68141 41.0309 9.10541 40.7349C8.52941 40.4309 7.91341 40.1589 7.25741 39.9189C6.67341 39.7029 6.08941 39.4629 5.50541 39.1989C4.92141 38.9349 4.38941 38.6229 3.90941 38.2629C3.43741 37.8949 3.05741 37.4509 2.76941 36.9309C2.48141 36.4029 2.33741 35.7749 2.33741 35.0469C2.33741 34.2949 2.54141 33.6069 2.94941 32.9829C3.35741 32.3509 3.94541 31.8469 4.71341 31.4709C5.48141 31.0869 6.40941 30.8949 7.49741 30.8949C8.38541 30.8949 9.16541 31.0269 9.83741 31.2909C10.5174 31.5469 11.0734 31.9029 11.5054 32.3589C11.9454 32.8069 12.2494 33.3189 12.4174 33.8949L10.4974 34.5429C10.2974 34.0709 9.92941 33.6709 9.39341 33.3429C8.86541 33.0069 8.18541 32.8389 7.35341 32.8389C6.46541 32.8389 5.76541 33.0349 5.25341 33.4269C4.74941 33.8189 4.49741 34.3589 4.49741 35.0469C4.49741 35.5669 4.66541 36.0029 5.00141 36.3549C5.34541 36.6989 5.79341 36.9989 6.34541 37.2549C6.89741 37.5109 7.48941 37.7589 8.12141 37.9989C8.71341 38.2229 9.30541 38.4789 9.89741 38.7669C10.4974 39.0469 11.0454 39.3909 11.5414 39.7989C12.0454 40.2069 12.4494 40.7069 12.7534 41.2989C13.0574 41.8829 13.2094 42.5909 13.2094 43.4229C13.2094 44.4549 12.9694 45.3309 12.4894 46.0509C12.0094 46.7709 11.3534 47.3229 10.5214 47.7069C9.68941 48.0829 8.74541 48.2709 7.68941 48.2709ZM21.0827 48.2709C19.4027 48.2709 18.0787 47.6989 17.1107 46.5549C16.1427 45.4029 15.6587 43.8389 15.6587 41.8629C15.6587 40.5429 15.8787 39.4029 16.3187 38.4429C16.7587 37.4829 17.3827 36.7429 18.1907 36.2229C19.0067 35.6949 19.9707 35.4309 21.0827 35.4309C22.2027 35.4309 23.1667 35.6909 23.9747 36.2109C24.7907 36.7229 25.4147 37.4589 25.8467 38.4189C26.2867 39.3789 26.5067 40.5189 26.5067 41.8389C26.5067 43.1589 26.2867 44.3029 25.8467 45.2709C25.4067 46.2309 24.7787 46.9709 23.9627 47.4909C23.1547 48.0109 22.1947 48.2709 21.0827 48.2709ZM21.0827 46.3269C22.1147 46.3269 22.9227 45.9309 23.5067 45.1389C24.0987 44.3389 24.3947 43.2389 24.3947 41.8389C24.3947 40.4309 24.0987 39.3309 23.5067 38.5389C22.9227 37.7469 22.1147 37.3509 21.0827 37.3509C20.0427 37.3509 19.2307 37.7469 18.6467 38.5389C18.0627 39.3229 17.7707 40.4309 17.7707 41.8629C17.7707 43.2629 18.0627 44.3589 18.6467 45.1509C19.2307 45.9349 20.0427 46.3269 21.0827 46.3269ZM29.6443 47.9829V35.7189H31.7323V36.9669C32.1083 36.4469 32.5603 36.0629 33.0883 35.8149C33.6163 35.5589 34.2203 35.4309 34.9003 35.4309C36.3883 35.4309 37.4923 35.8829 38.2123 36.7869C38.9323 37.6829 39.2923 39.0629 39.2923 40.9269V47.9829H37.2043V40.5669C37.2043 39.5349 36.9723 38.7429 36.5083 38.1909C36.0523 37.6309 35.4043 37.3509 34.5643 37.3509C33.6283 37.3509 32.9203 37.6189 32.4403 38.1549C31.9683 38.6829 31.7323 39.4709 31.7323 40.5189V47.9829H29.6443ZM47.2873 53.0949L46.2793 51.4629C47.3673 51.3989 48.2553 51.2509 48.9433 51.0189C49.6393 50.7869 50.1513 50.4589 50.4793 50.0349C50.8153 49.6109 50.9833 49.0789 50.9833 48.4389V46.7829C50.2473 47.7749 49.1913 48.2709 47.8153 48.2709C46.8073 48.2709 45.9273 48.0029 45.1753 47.4669C44.4233 46.9309 43.8393 46.1829 43.4233 45.2229C43.0073 44.2549 42.7993 43.1269 42.7993 41.8389C42.7993 40.5349 43.0073 39.4029 43.4233 38.4429C43.8473 37.4829 44.4393 36.7429 45.1993 36.2229C45.9593 35.6949 46.8553 35.4309 47.8873 35.4309C48.5033 35.4309 49.0793 35.5469 49.6153 35.7789C50.1593 36.0029 50.6153 36.3189 50.9833 36.7269V35.7189H53.0713V47.6469C53.0713 48.5189 52.9553 49.2829 52.7233 49.9389C52.4913 50.6029 52.1353 51.1589 51.6553 51.6069C51.1753 52.0549 50.5713 52.3989 49.8433 52.6389C49.1233 52.8869 48.2713 53.0389 47.2873 53.0949ZM48.2473 46.3269C48.7753 46.3269 49.2873 46.1669 49.7833 45.8469C50.2873 45.5269 50.6873 45.1109 50.9833 44.5989V38.9829C50.7113 38.5109 50.3113 38.1229 49.7833 37.8189C49.2633 37.5069 48.7513 37.3509 48.2473 37.3509C47.1673 37.3509 46.3393 37.7349 45.7633 38.5029C45.1953 39.2709 44.9113 40.3829 44.9113 41.8389C44.9113 42.7509 45.0473 43.5429 45.3193 44.2149C45.5993 44.8869 45.9873 45.4069 46.4833 45.7749C46.9873 46.1429 47.5753 46.3269 48.2473 46.3269Z" fill="white"/>
<path d="M62.2988 48.2709C61.3228 48.2709 60.4388 48.1109 59.6468 47.7909C58.8548 47.4629 58.1828 47.0189 57.6308 46.4589C57.0868 45.8909 56.6908 45.2469 56.4428 44.5269L58.4108 43.8069C58.7468 44.5509 59.2548 45.1549 59.9348 45.6189C60.6228 46.0749 61.4268 46.3029 62.3468 46.3029C63.3548 46.3029 64.1588 46.0629 64.7588 45.5829C65.3588 45.0949 65.6588 44.3909 65.6588 43.4709C65.6588 42.8229 65.4788 42.2789 65.1188 41.8389C64.7588 41.3989 64.2908 41.0309 63.7148 40.7349C63.1388 40.4309 62.5228 40.1589 61.8668 39.9189C61.2828 39.7029 60.6988 39.4629 60.1148 39.1989C59.5308 38.9349 58.9988 38.6229 58.5188 38.2629C58.0468 37.8949 57.6668 37.4509 57.3788 36.9309C57.0908 36.4029 56.9468 35.7749 56.9468 35.0469C56.9468 34.2949 57.1508 33.6069 57.5588 32.9829C57.9668 32.3509 58.5548 31.8469 59.3228 31.4709C60.0908 31.0869 61.0188 30.8949 62.1068 30.8949C62.9948 30.8949 63.7748 31.0269 64.4468 31.2909C65.1268 31.5469 65.6828 31.9029 66.1148 32.3589C66.5548 32.8069 66.8588 33.3189 67.0268 33.8949L65.1068 34.5429C64.9068 34.0709 64.5388 33.6709 64.0028 33.3429C63.4748 33.0069 62.7948 32.8389 61.9628 32.8389C61.0748 32.8389 60.3748 33.0349 59.8628 33.4269C59.3588 33.8189 59.1068 34.3589 59.1068 35.0469C59.1068 35.5669 59.2748 36.0029 59.6108 36.3549C59.9548 36.6989 60.4028 36.9989 60.9548 37.2549C61.5068 37.5109 62.0988 37.7589 62.7308 37.9989C63.3228 38.2229 63.9148 38.4789 64.5068 38.7669C65.1068 39.0469 65.6548 39.3909 66.1508 39.7989C66.6548 40.2069 67.0588 40.7069 67.3628 41.2989C67.6668 41.8829 67.8188 42.5909 67.8188 43.4229C67.8188 44.4549 67.5788 45.3309 67.0988 46.0509C66.6188 46.7709 65.9628 47.3229 65.1308 47.7069C64.2988 48.0829 63.3548 48.2709 62.2988 48.2709ZM75.3561 48.2709C74.3001 48.2709 73.3921 48.0149 72.6321 47.5029C71.8721 46.9829 71.2881 46.2469 70.8801 45.2949C70.4721 44.3349 70.2681 43.1909 70.2681 41.8629C70.2681 40.5269 70.4761 39.3789 70.8921 38.4189C71.3081 37.4589 71.9001 36.7229 72.6681 36.2109C73.4441 35.6909 74.3721 35.4309 75.4521 35.4309C76.5081 35.4309 77.4041 35.6749 78.1401 36.1629C78.8761 36.6509 79.4121 37.3589 79.7481 38.2869L77.7801 39.0069C77.5801 38.4789 77.2801 38.0749 76.8801 37.7949C76.4881 37.5149 76.0201 37.3749 75.4761 37.3749C74.4841 37.3749 73.7241 37.7589 73.1961 38.5269C72.6681 39.2949 72.4041 40.4069 72.4041 41.8629C72.4041 43.2869 72.6641 44.3829 73.1841 45.1509C73.7041 45.9189 74.4441 46.3029 75.4041 46.3029C76.0201 46.3029 76.5441 46.1429 76.9761 45.8229C77.4161 45.5029 77.7241 45.0549 77.9001 44.4789L79.8441 45.1269C79.5481 46.1349 79.0081 46.9109 78.2241 47.4549C77.4401 47.9989 76.4841 48.2709 75.3561 48.2709ZM86.3057 48.2709C84.9777 48.2709 83.9337 47.9029 83.1737 47.1669C82.4137 46.4309 82.0337 45.4229 82.0337 44.1429C82.0337 43.3189 82.2217 42.6029 82.5977 41.9949C82.9737 41.3869 83.5057 40.9189 84.1937 40.5909C84.8817 40.2549 85.6897 40.0869 86.6177 40.0869C87.2177 40.0869 87.7777 40.1549 88.2977 40.2909C88.8257 40.4189 89.3217 40.6149 89.7857 40.8789V40.0149C89.7857 39.0629 89.5697 38.3669 89.1377 37.9269C88.7057 37.4789 88.0337 37.2549 87.1217 37.2549C86.5377 37.2549 85.9297 37.3629 85.2977 37.5789C84.6737 37.7949 84.0897 38.0949 83.5457 38.4789L82.9457 36.7269C83.5617 36.3189 84.2617 36.0029 85.0457 35.7789C85.8377 35.5469 86.6177 35.4309 87.3857 35.4309C88.8417 35.4309 89.9337 35.8029 90.6617 36.5469C91.3897 37.2829 91.7537 38.3829 91.7537 39.8469V47.9829H89.7857V46.8549C89.3057 47.3109 88.7657 47.6629 88.1657 47.9109C87.5657 48.1509 86.9457 48.2709 86.3057 48.2709ZM86.6177 46.4469C87.1857 46.4469 87.7457 46.3069 88.2977 46.0269C88.8577 45.7469 89.3537 45.3509 89.7857 44.8389V42.7269C89.3777 42.4709 88.9137 42.2709 88.3937 42.1269C87.8737 41.9829 87.3777 41.9109 86.9057 41.9109C86.0097 41.9109 85.3017 42.1149 84.7817 42.5229C84.2617 42.9229 84.0017 43.4709 84.0017 44.1669C84.0017 44.8709 84.2337 45.4269 84.6977 45.8349C85.1617 46.2429 85.8017 46.4469 86.6177 46.4469ZM95.6912 52.8549V35.7189H97.7792V36.7509C98.6592 35.8709 99.7072 35.4309 100.923 35.4309C101.963 35.4309 102.859 35.6909 103.611 36.2109C104.371 36.7309 104.955 37.4709 105.363 38.4309C105.779 39.3909 105.987 40.5269 105.987 41.8389C105.987 43.1509 105.779 44.2909 105.363 45.2589C104.947 46.2189 104.359 46.9629 103.599 47.4909C102.847 48.0109 101.955 48.2709 100.923 48.2709C100.275 48.2709 99.6912 48.1549 99.1712 47.9229C98.6512 47.6829 98.1872 47.3189 97.7792 46.8309V51.8709L95.6912 52.8549ZM100.659 46.3269C101.691 46.3269 102.479 45.9389 103.023 45.1629C103.575 44.3869 103.851 43.2789 103.851 41.8389C103.851 40.4549 103.563 39.3629 102.987 38.5629C102.411 37.7549 101.635 37.3509 100.659 37.3509C100.035 37.3509 99.4752 37.4949 98.9792 37.7829C98.4832 38.0709 98.0832 38.4789 97.7792 39.0069V44.6709C98.2032 45.2229 98.6552 45.6389 99.1352 45.9189C99.6152 46.1909 100.123 46.3269 100.659 46.3269ZM114.365 48.2709C113.245 48.2709 112.277 47.9949 111.461 47.4429C110.645 46.8909 110.017 46.1309 109.577 45.1629C109.137 44.1949 108.917 43.0869 108.917 41.8389C108.917 40.4869 109.145 39.3349 109.601 38.3829C110.057 37.4229 110.693 36.6909 111.509 36.1869C112.325 35.6829 113.277 35.4309 114.365 35.4309C115.285 35.4309 116.129 35.6389 116.897 36.0549C117.665 36.4629 118.277 37.0989 118.733 37.9629C119.197 38.8189 119.429 39.9189 119.429 41.2629C119.429 41.4549 119.421 41.6789 119.405 41.9349C119.397 42.1829 119.381 42.4389 119.357 42.7029H111.053C111.133 43.4469 111.317 44.0989 111.605 44.6589C111.893 45.2189 112.273 45.6589 112.745 45.9789C113.217 46.2909 113.773 46.4469 114.413 46.4469C114.933 46.4469 115.413 46.3549 115.853 46.1709C116.301 45.9869 116.717 45.7029 117.101 45.3189L118.325 46.6869C117.869 47.1429 117.301 47.5229 116.621 47.8269C115.949 48.1229 115.197 48.2709 114.365 48.2709ZM111.029 40.8789H117.317C117.317 40.1829 117.201 39.5629 116.969 39.0189C116.745 38.4669 116.413 38.0349 115.973 37.7229C115.533 37.4109 114.997 37.2549 114.365 37.2549C113.477 37.2549 112.713 37.5429 112.073 38.1189C111.441 38.6949 111.093 39.6149 111.029 40.8789Z" fill="#ECF39E"/>
</svg>
